<svg width="71.000000" height="59.217773" viewBox="0 0 71 59.2178" fill="none" xmlns="http://www.w3.org/2000/svg" xmlns:xlink="http://www.w3.org/1999/xlink">
	<desc>
			Created with Pixso.
	</desc>
	<defs>
		<linearGradient id="paint_linear_1_3199_0" x1="16.483887" y1="18.868252" x2="54.220390" y2="18.868252" gradientUnits="userSpaceOnUse">
			<stop stop-color="#00F5A0"/>
			<stop offset="1.000000" stop-color="#00D9F5"/>
		</linearGradient>
	</defs>
	<rect id="icon" width="37.736504" height="37.736504" transform="translate(16.484985 0.000000)" fill="#FFFFFF" fill-opacity="0"/>
	<rect id="Ellipse 1" width="37.736504" height="37.736504" transform="translate(16.484985 0.000000)" fill="#FFFFFF" fill-opacity="0"/>
	<ellipse id="Ellipse 1" cx="35.352173" cy="18.868256" rx="18.868252" ry="18.868254" fill="url(#paint_linear_1_3199_0)" fill-opacity="1.000000"/>
	<path id="Vector" d="M26.0634 28.705L30.0114 28.705L30.0114 14.0974L26.0634 14.0974L26.0634 28.705ZM28.0374 7.64893C26.7214 7.64893 25.6686 8.70172 25.6686 10.0177C25.6686 11.3337 26.7214 12.3865 28.0374 12.3865C29.3534 12.3865 30.4062 11.3337 30.4062 10.0177C30.4062 8.70172 29.3534 7.64893 28.0374 7.64893ZM36.723 16.3346L36.723 14.0974L32.775 14.0974L32.775 28.705L36.723 28.705L36.723 21.2038C36.723 16.9926 42.1187 16.7294 42.1187 21.2038L42.1187 28.705L46.0667 28.705L46.0667 19.7562C46.0667 12.6497 38.5654 12.913 36.723 16.3346Z" fill="#1F2626" fill-opacity="1.000000" fill-rule="nonzero"/>
	<path id="linkedin" d="M2.56586 48.8184L1.67817 48.8184L1.67817 57.2178L7.27094 57.2178L7.27094 56.4502L2.56586 56.4502L2.56586 48.8184ZM11.0739 48.8184L10.1862 48.8184L10.1862 57.2178L11.0739 57.2178L11.0739 48.8184ZM22.2697 57.2178L22.2697 48.8184L21.3937 48.8184L21.3937 55.6328L15.9826 48.8184L15.2502 48.8184L15.2502 57.2178L16.1379 57.2178L16.1379 50.4004L21.5373 57.2178L22.2697 57.2178ZM27.3339 55.0088L29.0507 53.2686L32.4813 57.2178L33.5389 57.2178L29.6512 52.6211L33.287 48.8184L32.2645 48.8184L27.3339 53.8926L27.3339 48.8184L26.4462 48.8184L26.4462 57.2178L27.3339 57.2178L27.3339 55.0088ZM42.3566 57.2178L42.3566 56.4502L37.3059 56.4502L37.3059 53.3301L41.6506 53.3301L41.6506 52.5742L37.3059 52.5742L37.3059 49.5859L42.1779 49.5859L42.1779 48.8184L36.4182 48.8184L36.4182 57.2178L42.3566 57.2178ZM49.3051 48.8184L45.8862 48.8184L45.8862 57.2178L49.3051 57.2178Q50.6381 57.2178 51.6576 56.6846Q52.3061 56.3436 52.7696 55.8343Q53.0349 55.5429 53.2397 55.1963Q53.3294 55.0447 53.405 54.8863Q53.8051 54.0468 53.8051 53.0166Q53.8051 51.9984 53.4123 51.1654Q53.3339 50.9989 53.2397 50.8398Q53.0276 50.4798 52.7506 50.1797Q52.2928 49.6838 51.6576 49.3516Q50.6381 48.8184 49.3051 48.8184ZM58.1259 48.8184L57.2382 48.8184L57.2382 57.2178L58.1259 57.2178L58.1259 48.8184ZM69.3217 57.2178L69.3217 48.8184L68.4457 48.8184L68.4457 55.6328L63.0346 48.8184L62.3022 48.8184L62.3022 57.2178L63.1899 57.2178L63.1899 50.4004L68.5893 57.2178L69.3217 57.2178ZM51.1889 56.0137Q50.3627 56.4502 49.2582 56.4502L46.7739 56.4502L46.7739 49.5859L49.2582 49.5859Q50.3627 49.5859 51.1889 50.0254Q51.7234 50.3068 52.1021 50.7283Q52.3108 50.9606 52.4721 51.2354Q52.5199 51.3163 52.5627 51.3998Q52.9291 52.1142 52.9291 53.0166Q52.9291 53.9123 52.5681 54.6252Q52.5229 54.7144 52.4721 54.8008Q52.3136 55.0708 52.1094 55.3001Q51.7286 55.7276 51.1889 56.0137Z" fill="#BDEBEA" fill-opacity="1.000000" fill-rule="evenodd"/>
</svg>
